<?xml version="1.0" encoding="utf-8"?>
<svg width="800px" height="800px" viewBox="0 -2 20 20" xmlns="http://www.w3.org/2000/svg">
  <g id="delivery-truck" transform="translate(-2 -4)">
    <path id="secondary" d="M20.24,10.81,19,10.5l-.79-2.77a1,1,0,0,0-1-.73H13V17h2a2,2,0,0,1,4,0h1a1,1,0,0,0,1-1V11.78A1,1,0,0,0,20.24,10.81Z" style="fill: rgb(35, 9, 242);"/>
    <path id="primary" d="M 9.17 17 L 13 17 L 13 6 C 13 5.724 12.888 5.474 12.707 5.293 C 12.526 5.112 12.276 5 12 5 L 5 5" stroke-linecap="round" stroke-linejoin="round" stroke-width="2" style="fill: rgb(35, 9, 242); stroke: color(srgb-linear 0.823 0.098 0.007);"/>
    <path id="primary-2" data-name="primary" d="M3,13v3a1,1,0,0,0,1,1h.87" fill="none" stroke-linecap="round" stroke-linejoin="round" stroke-width="2" style="stroke: rgb(234, 88, 20);"/>
    <path id="primary-3" data-name="primary" d="M14.87,17H13V7h4.25a1,1,0,0,1,1,.73L19,10.5l1.24.31a1,1,0,0,1,.76,1V16a1,1,0,0,1-1,1h-.89" stroke-linecap="round" stroke-linejoin="round" stroke-width="2" fill="none" style="stroke: rgb(234, 88, 20);"/>
    <path id="primary-4" data-name="primary" d="M9,17a2,2,0,1,1-2-2A2,2,0,0,1,9,17Zm8-2a2,2,0,1,0,2,2A2,2,0,0,0,17,15ZM3,9H9" fill="none" stroke-linecap="round" stroke-linejoin="round" stroke-width="2" style="stroke: rgb(234, 88, 20);"/>
  </g>
</svg>